<?xml version="1.0" encoding="UTF-8" standalone="no"?>
<svg
   xmlns:dc="http://purl.org/dc/elements/1.1/"
   xmlns:cc="http://creativecommons.org/ns#"
   xmlns:rdf="http://www.w3.org/1999/02/22-rdf-syntax-ns#"
   xmlns:svg="http://www.w3.org/2000/svg"
   xmlns="http://www.w3.org/2000/svg"
   xmlns:sodipodi="http://sodipodi.sourceforge.net/DTD/sodipodi-0.dtd"
   xmlns:inkscape="http://www.inkscape.org/namespaces/inkscape"
   version="1.1"
   x="0px"
   y="0px"
   viewBox="0 0 100 100"
   xml:space="preserve"
   id="svg32"
   sodipodi:docname="noun_prototype_3216827.svg"
   width="100"
   height="100"
   inkscape:version="1.0.1 (3bc2e813f5, 2020-09-07)"><metadata
     id="metadata38"><rdf:RDF><cc:Work
         rdf:about=""><dc:format>image/svg+xml</dc:format><dc:type
           rdf:resource="http://purl.org/dc/dcmitype/StillImage" /><dc:title></dc:title></cc:Work></rdf:RDF></metadata><defs
     id="defs36" /><sodipodi:namedview
     pagecolor="#ffffff"
     bordercolor="#666666"
     borderopacity="1"
     objecttolerance="10"
     gridtolerance="10"
     guidetolerance="10"
     inkscape:pageopacity="0"
     inkscape:pageshadow="2"
     inkscape:window-width="1266"
     inkscape:window-height="892"
     id="namedview34"
     showgrid="false"
     inkscape:zoom="8.7304348"
     inkscape:cx="42.668264"
     inkscape:cy="45.927695"
     inkscape:window-x="26"
     inkscape:window-y="23"
     inkscape:window-maximized="0"
     inkscape:current-layer="svg32" /><g
     id="g202"
     transform="matrix(1.5042918,0,0,1.5042918,-2.4493148,-1.3772006)"><g
       id="g26"><path
         d="m 13.1626,2.73096 h -1.65234 c -3.75304,0 -6.65332,3.07115 -6.65332,6.65332 v 38.28809 c 0,0.0065 0.00354,0.0119 0.00366,0.01837 0.01978,3.65442 3.0061,6.62518 6.66333,6.62518 h 51.86914 c 0.41406,0 0.75,-0.33594 0.75,-0.75 V 7.29932 c 0,-0.41406 -0.33594,-0.75 -0.75,-0.75 H 13.9126 V 3.48096 c 0,-0.41407 -0.33594,-0.75 -0.75,-0.75 z M 6.35693,9.38428 c 0,-2.76516 2.24223,-5.15332 5.15332,-5.15332 h 0.90234 c -0.0053,50.39984 -0.0035,33.01687 -0.0039,36.77734 h -0.89844 c -2.08323,0 -3.92158,0.94203 -5.15332,2.4541 V 9.38428 Z M 62.64307,8.04932 v 44.7666 H 11.52393 c -2.83789,0 -5.1543,-2.30762 -5.16406,-5.15332 0,-2.77167 2.24596,-5.15332 5.15332,-5.15332 h 1.64551 c 0.10376,0 0.20239,-0.02112 0.29224,-0.0592 0.271,-0.1131 0.46167,-0.38 0.46167,-0.69177 V 8.04932 Z"
         id="path2" /><path
         d="m 54.31494,56.75342 c -0.09668,-0.04297 -0.20117,-0.06543 -0.30664,-0.06543 -13.75256,0 -26.15891,0 -39.77441,0 -2.78711,0 -5.05371,2.14844 -5.05371,4.79004 0,2.6416 2.2666,4.79102 5.05371,4.79102 20.50666,0 18.56344,0 39.77441,0 0.10547,0 0.20996,-0.02246 0.30664,-0.06543 l 9.02148,-4.04102 c 0.26953,-0.12109 0.44336,-0.38867 0.44336,-0.68457 0,-0.2959 -0.17383,-0.56348 -0.44336,-0.68457 z m -43.63476,4.72461 c 0,-1.81445 1.59375,-3.29004 3.55371,-3.29004 h 0.40039 v 6.58105 h -0.40039 c -1.95996,0 -3.55371,-1.47656 -3.55371,-3.29101 z m 5.4541,-3.29004 h 36.97363 v 6.58105 H 16.13428 Z m 38.47363,6.24023 v -5.90039 l 6.58691,2.9502 z"
         id="path4" /><path
         d="m 38.34033,31.43604 c 3.74707,0 6.7959,-3.05371 6.7959,-6.80664 0,-3.74121 -3.04883,-6.78516 -6.7959,-6.78516 -3.74707,0 -6.7959,3.04395 -6.7959,6.78516 0,3.75292 3.04883,6.80664 6.7959,6.80664 z m 0,-12.0918 c 2.91992,0 5.2959,2.37109 5.2959,5.28516 0,2.92578 -2.37598,5.30664 -5.2959,5.30664 -2.91992,0 -5.2959,-2.38086 -5.2959,-5.30664 0,-2.91407 2.37598,-5.28516 5.2959,-5.28516 z"
         id="path6" /><path
         d="m 25.14404,27.34229 2.43066,0.53711 c 0.2168,0.72168 0.50488,1.41895 0.87012,2.14355 l -1.35156,2.02734 c -0.4082,0.62109 -0.3252,1.45215 0.19824,1.97559 l 1.66211,1.66211 c 0.51855,0.52051 1.34473,0.60449 1.96973,0.19629 l 2.09668,-1.35059 c 0.65039,0.3623 1.34766,0.65527 2.13477,0.91699 l 0.47266,2.3877 c 0.14941,0.72461 0.79883,1.25098 1.54395,1.25098 h 2.33691 c 0.75098,0 1.38086,-0.51465 1.53418,-1.25391 l 0.53516,-2.42969 c 0.73926,-0.22168 1.43945,-0.51465 2.14648,-0.86914 l 2.03711,1.35059 c 0.61914,0.40625 1.42773,0.3291 1.97754,-0.2002 l 1.6377,-1.65039 c 0.55176,-0.52832 0.63574,-1.36914 0.20801,-1.98926 l -1.34082,-2.08594 c 0.34961,-0.62891 0.63184,-1.30664 0.91016,-2.13574 l 2.36328,-0.48047 c 0.7373,-0.12988 1.27148,-0.77539 1.27148,-1.53613 v -2.33691 c 0,-0.74512 -0.52539,-1.39355 -1.24902,-1.54395 -0.002,0 -0.0049,-9.8e-4 -0.0068,-9.8e-4 l -2.35938,-0.4668 C 49.148,21.45454 49.11675,21.42919 49.10503,21.39013 48.87456,20.62548 48.59331,19.94775 48.24858,19.24462 l 1.32129,-2.00098 c 0.43848,-0.61426 0.35547,-1.47363 -0.17969,-1.98633 l -1.66406,-1.67578 c -0.53711,-0.5166 -1.34375,-0.5957 -1.96777,-0.18652 L 43.65674,14.729 C 42.91846,14.33935 42.23877,14.05908 41.5249,13.81494 l -0.4834,-2.37402 c -0.15137,-0.73047 -0.7959,-1.26074 -1.5332,-1.26074 h -2.33691 c -0.74316,0 -1.39258,0.53027 -1.54492,1.2666 l -0.46875,2.35547 c -0.01074,0.05078 -0.05371,0.06934 -0.05566,0.07031 -0.67871,0.19141 -1.38086,0.48047 -2.1582,0.85938 l -2.02539,-1.33789 c -0.61816,-0.40723 -1.44434,-0.32227 -1.96387,0.19824 l -1.66309,1.66309 c -0.5293,0.5293 -0.60938,1.35938 -0.19531,1.96875 l 1.33496,2.10547 c -0.35645,0.66309 -0.64453,1.35645 -0.85449,2.05664 -0.01367,0.04297 -0.04492,0.06836 -0.04688,0.06934 l -2.3877,0.47266 c -0.72461,0.14941 -1.25098,0.79883 -1.25098,1.54395 v 2.33691 c 0,0.76072 0.53516,1.40623 1.25293,1.53319 z m 0.29492,-3.94434 2.40527,-0.47656 c 0.55078,-0.12695 0.99805,-0.54688 1.16797,-1.09961 0.18164,-0.6084 0.43066,-1.20801 0.73828,-1.77832 0.28125,-0.51855 0.26074,-1.14063 -0.05762,-1.62891 l -1.34082,-2.09863 1.74121,-1.66895 2.01465,1.33105 c 0.47852,0.32617 1.10156,0.35645 1.62109,0.07422 0.60742,-0.32617 1.20605,-0.57422 1.79785,-0.74121 0.55078,-0.16992 0.9707,-0.62305 1.09863,-1.2002 l 0.5459,-2.43066 2.40039,0.0625 0.48047,2.35938 c 0.10645,0.57031 0.52832,1.0332 1.11816,1.21387 0.55859,0.1582 1.14258,0.39941 1.78027,0.73633 0.51563,0.2793 1.11816,0.25488 1.61328,-0.06836 l 2.01953,-1.33594 c 0.03711,-0.02246 0.07715,-0.0088 0.09082,0.0029 l 1.65918,1.74316 -1.33887,2.02637 c -0.31738,0.4873 -0.34277,1.1084 -0.06152,1.62988 0.29688,0.53125 0.53711,1.11133 0.73633,1.77539 0.16797,0.54883 0.61523,0.96875 1.18945,1.10059 l 2.38281,0.47168 0.14551,-0.73535 -0.09863,0.80957 -0.05078,2.39941 -2.374,0.48242 c -0.55273,0.10449 -1.02148,0.53711 -1.19629,1.10547 -0.19727,0.66016 -0.4375,1.23926 -0.73926,1.78027 -0.27637,0.5127 -0.25098,1.13379 0.06934,1.62598 l 1.32813,2.10156 -1.63867,1.65039 c -0.02539,0.02441 -0.06543,0.03809 -0.10059,0.01758 l -2.02539,-1.34277 c -0.47852,-0.32715 -1.10059,-0.35547 -1.62988,-0.06934 -0.54785,0.30371 -1.14844,0.55469 -1.78906,0.74707 -0.56738,0.1748 -0.98438,0.63379 -1.08789,1.18652 l -0.5459,2.43262 -2.41113,-0.04785 -0.47461,-2.39844 c -0.125,-0.56152 -0.53418,-1 -1.10156,-1.1748 -0.61914,-0.18555 -1.21582,-0.43652 -1.77832,-0.74902 -0.2373,-0.12891 -0.49707,-0.19238 -0.75684,-0.19238 -0.30273,0 -0.60645,0.08691 -0.87207,0.26074 l -2.09863,1.34082 -1.6709,-1.75 1.34375,-2.0166 c 0.3252,-0.47461 0.34863,-1.09668 0.06348,-1.62109 -0.30273,-0.56348 -0.55176,-1.16699 -0.74121,-1.79785 -0.17383,-0.56445 -0.63184,-0.98145 -1.18555,-1.08789 l -2.43359,-0.5459 z"
         id="path8" /><path
         d="m 18.00537,44.68311 h 7.46875 c 0.41406,0 0.75,-0.33594 0.75,-0.75 0,-0.41406 -0.33594,-0.75 -0.75,-0.75 h -7.46875 c -0.41406,0 -0.75,0.33594 -0.75,0.75 0,0.41406 0.33594,0.75 0.75,0.75 z"
         id="path10" /><path
         d="m 18.00537,49.35889 h 7.46875 c 0.41406,0 0.75,-0.33594 0.75,-0.75 0,-0.41406 -0.33594,-0.75 -0.75,-0.75 h -7.46875 c -0.41406,0 -0.75,0.33594 -0.75,0.75 0,0.41406 0.33594,0.75 0.75,0.75 z"
         id="path12" /><path
         d="M 36.81787,43.18311 H 29.3501 c -0.41406,0 -0.75,0.33594 -0.75,0.75 0,0.41406 0.33594,0.75 0.75,0.75 h 7.46777 c 0.41406,0 0.75,-0.33594 0.75,-0.75 0,-0.41406 -0.33594,-0.75 -0.75,-0.75 z"
         id="path14" /><path
         d="M 36.81787,47.85889 H 29.3501 c -0.41406,0 -0.75,0.33594 -0.75,0.75 0,0.41406 0.33594,0.75 0.75,0.75 h 7.46777 c 0.41406,0 0.75,-0.33594 0.75,-0.75 0,-0.41406 -0.33594,-0.75 -0.75,-0.75 z"
         id="path16" /><path
         d="m 48.1626,43.18311 h -7.46777 c -0.41406,0 -0.75,0.33594 -0.75,0.75 0,0.41406 0.33594,0.75 0.75,0.75 h 7.46777 c 0.41406,0 0.75,-0.33594 0.75,-0.75 0,-0.41406 -0.33594,-0.75 -0.75,-0.75 z"
         id="path18" /><path
         d="m 48.1626,47.85889 h -7.46777 c -0.41406,0 -0.75,0.33594 -0.75,0.75 0,0.41406 0.33594,0.75 0.75,0.75 h 7.46777 c 0.41406,0 0.75,-0.33594 0.75,-0.75 0,-0.41406 -0.33594,-0.75 -0.75,-0.75 z"
         id="path20" /><path
         d="m 51.28857,43.93311 c 0,0.41406 0.33594,0.75 0.75,0.75 h 7.46777 c 0.41406,0 0.75,-0.33594 0.75,-0.75 0,-0.41406 -0.33594,-0.75 -0.75,-0.75 h -7.46777 c -0.41406,0 -0.75,0.33593 -0.75,0.75 z"
         id="path22" /><path
         d="m 59.50635,47.85889 h -7.46777 c -0.41406,0 -0.75,0.33594 -0.75,0.75 0,0.41406 0.33594,0.75 0.75,0.75 h 7.46777 c 0.41406,0 0.75,-0.33594 0.75,-0.75 0,-0.41406 -0.33594,-0.75 -0.75,-0.75 z"
         id="path24" /></g></g></svg>
